<svg version="1.1" id="Layer_1" xmlns="http://www.w3.org/2000/svg" xmlns:xlink="http://www.w3.org/1999/xlink" x="0px" y="0px"
	 width="100%" viewBox="0 0 120 120" enable-background="new 0 0 120 120" xml:space="preserve">
<path fill="#FCFCFC" opacity="1.000000" stroke="none" 
	d="
M69.000000,121.000000 
	C46.000000,121.000000 23.500000,121.000000 1.000000,121.000000 
	C1.000000,81.000000 1.000000,41.000000 1.000000,1.000000 
	C41.000000,1.000000 81.000000,1.000000 121.000000,1.000000 
	C121.000000,41.000000 121.000000,81.000000 121.000000,121.000000 
	C103.833336,121.000000 86.666664,121.000000 69.000000,121.000000 
M69.442955,71.975266 
	C87.150589,72.040550 91.799515,75.597664 96.861000,92.928185 
	C96.941948,93.205322 97.244331,93.417786 97.494461,93.722710 
	C97.930923,93.542603 98.450829,93.447784 98.818054,93.158913 
	C106.697479,86.960396 109.816040,76.589783 106.827614,66.610558 
	C104.146423,57.657291 95.384346,50.394043 85.796371,49.979038 
	C72.157112,49.388676 58.495007,49.347038 44.846306,48.946789 
	C34.599430,48.646301 26.988914,42.599018 24.456959,32.913052 
	C23.979237,31.085533 23.787191,29.183338 23.435802,27.156872 
	C15.339832,32.010193 11.111048,41.789036 12.845377,50.945221 
	C14.853901,61.548988 22.318594,69.848106 32.549778,70.773323 
	C44.458237,71.850197 56.484196,71.627762 69.442955,71.975266 
M58.207676,92.024048 
	C61.972248,93.437218 66.931717,93.841576 69.194962,96.522278 
	C71.942719,99.776863 72.415665,104.952019 74.047005,109.815620 
	C75.068405,109.467453 77.263687,108.834007 79.369987,107.980888 
	C87.659737,104.623268 92.019356,98.211937 90.746384,91.385384 
	C89.267975,83.457062 83.339233,79.159851 73.926208,78.938980 
	C61.116920,78.638428 48.306713,78.301453 35.505020,77.780533 
	C27.554022,77.456993 20.636015,74.497406 15.085237,68.646210 
	C13.884603,67.380600 12.687926,66.111221 10.938142,64.260490 
	C10.719045,65.906815 10.541615,66.681870 10.523218,67.460678 
	C10.153281,83.121063 18.767393,92.012383 34.301758,92.020660 
	C41.958290,92.024742 49.614819,92.021721 58.207676,92.024048 
M65.596268,29.066904 
	C63.597664,29.029222 61.586147,29.123953 59.602722,28.930584 
	C51.675167,28.157709 46.752705,21.939289 47.714447,14.074909 
	C47.824436,13.175518 47.729343,12.251047 47.729343,10.973104 
	C45.362221,11.742614 43.311928,12.366102 41.291027,13.073560 
	C32.733196,16.069405 28.734100,22.064232 29.947779,30.027971 
	C31.083948,37.483139 36.936256,41.856819 45.900173,42.096367 
	C58.557117,42.434601 71.212891,42.824078 83.867317,43.246696 
	C93.341385,43.563099 101.359169,47.045483 107.411194,54.507690 
	C107.991096,55.222721 108.046944,56.362762 108.346077,57.305504 
	C109.155197,56.778728 109.964325,56.251949 110.773453,55.725174 
	C109.519035,50.657379 108.755417,45.401218 106.899101,40.564426 
	C103.854599,32.631718 97.975677,28.545820 89.063469,28.974413 
	C81.581642,29.334217 74.069496,29.063431 65.596268,29.066904 
M31.929281,98.447327 
	C30.413164,98.447327 28.897047,98.447327 27.380928,98.447327 
	C35.881916,106.790619 45.598118,111.318047 57.033165,111.633629 
	C63.543301,111.813293 66.678314,109.559235 66.590736,104.961769 
	C66.507271,100.580765 63.409130,98.352531 57.299446,98.358124 
	C49.144745,98.365593 40.990082,98.415436 31.929281,98.447327 
M93.367516,22.010590 
	C84.659592,13.349707 73.909637,9.738532 61.886787,9.444630 
	C56.742161,9.318869 54.110992,11.498128 53.920330,15.610655 
	C53.718868,19.956085 56.476921,22.649971 61.598858,22.681902 
	C72.061775,22.747133 82.525749,22.643152 93.367516,22.010590 
z"/>
<path fill="#E9613B" opacity="1.000000" stroke="none" 
	d="
M68.951057,71.972229 
	C56.484196,71.627762 44.458237,71.850197 32.549778,70.773323 
	C22.318594,69.848106 14.853901,61.548988 12.845377,50.945221 
	C11.111048,41.789036 15.339832,32.010193 23.435802,27.156872 
	C23.787191,29.183338 23.979237,31.085533 24.456959,32.913052 
	C26.988914,42.599018 34.599430,48.646301 44.846306,48.946789 
	C58.495007,49.347038 72.157112,49.388676 85.796371,49.979038 
	C95.384346,50.394043 104.146423,57.657291 106.827614,66.610558 
	C109.816040,76.589783 106.697479,86.960396 98.818054,93.158913 
	C98.450829,93.447784 97.930923,93.542603 97.494461,93.722710 
	C97.244331,93.417786 96.941948,93.205322 96.861000,92.928185 
	C91.799515,75.597664 87.150589,72.040550 68.951057,71.972229 
z"/>
<path fill="#41B251" opacity="1.000000" stroke="none" 
	d="
M57.739513,92.022980 
	C49.614819,92.021721 41.958290,92.024742 34.301758,92.020660 
	C18.767393,92.012383 10.153281,83.121063 10.523218,67.460678 
	C10.541615,66.681870 10.719045,65.906815 10.938142,64.260490 
	C12.687926,66.111221 13.884603,67.380600 15.085237,68.646210 
	C20.636015,74.497406 27.554022,77.456993 35.505020,77.780533 
	C48.306713,78.301453 61.116920,78.638428 73.926208,78.938980 
	C83.339233,79.159851 89.267975,83.457062 90.746384,91.385384 
	C92.019356,98.211937 87.659737,104.623268 79.369987,107.980888 
	C77.263687,108.834007 75.068405,109.467453 74.047005,109.815620 
	C72.415665,104.952019 71.942719,99.776863 69.194962,96.522278 
	C66.931717,93.841576 61.972248,93.437218 57.739513,92.022980 
z"/>
<path fill="#354392" opacity="1.000000" stroke="none" 
	d="
M66.083519,29.069366 
	C74.069496,29.063431 81.581642,29.334217 89.063469,28.974413 
	C97.975677,28.545820 103.854599,32.631718 106.899101,40.564426 
	C108.755417,45.401218 109.519035,50.657379 110.773453,55.725174 
	C109.964325,56.251949 109.155197,56.778728 108.346077,57.305504 
	C108.046944,56.362762 107.991096,55.222721 107.411194,54.507690 
	C101.359169,47.045483 93.341385,43.563099 83.867317,43.246696 
	C71.212891,42.824078 58.557117,42.434601 45.900173,42.096367 
	C36.936256,41.856819 31.083948,37.483139 29.947779,30.027971 
	C28.734100,22.064232 32.733196,16.069405 41.291027,13.073560 
	C43.311928,12.366102 45.362221,11.742614 47.729343,10.973104 
	C47.729343,12.251047 47.824436,13.175518 47.714447,14.074909 
	C46.752705,21.939289 51.675167,28.157709 59.602722,28.930584 
	C61.586147,29.123953 63.597664,29.029222 66.083519,29.069366 
z"/>
<path fill="#953691" opacity="1.000000" stroke="none" 
	d="
M32.382339,98.447205 
	C40.990082,98.415436 49.144745,98.365593 57.299446,98.358124 
	C63.409130,98.352531 66.507271,100.580765 66.590736,104.961769 
	C66.678314,109.559235 63.543301,111.813293 57.033165,111.633629 
	C45.598118,111.318047 35.881916,106.790619 27.380928,98.447327 
	C28.897047,98.447327 30.413164,98.447327 32.382339,98.447205 
z"/>
<path fill="#3780B8" opacity="1.000000" stroke="none" 
	d="
M93.178406,22.309727 
	C82.525749,22.643152 72.061775,22.747133 61.598858,22.681902 
	C56.476921,22.649971 53.718868,19.956085 53.920330,15.610655 
	C54.110992,11.498128 56.742161,9.318869 61.886787,9.444630 
	C73.909637,9.738532 84.659592,13.349707 93.178406,22.309727 
z"/>
</svg>